<?xml version="1.0" standalone="no"?>
<!DOCTYPE svg PUBLIC "-//W3C//DTD SVG 20010904//EN"
 "http://www.w3.org/TR/2001/REC-SVG-20010904/DTD/svg10.dtd">
<svg version="1.0" xmlns="http://www.w3.org/2000/svg"
 width="2448.000000pt" height="3264.000000pt" viewBox="0 0 2448.000000 3264.000000"
 preserveAspectRatio="xMidYMid meet">

<g transform="translate(0.000000,3264.000000) scale(0.100000,-0.100000)"
fill="#000000" stroke="none">
<path d="M13030 26180 c-35 -6 -82 -28 -110 -52 -40 -33 -76 -99 -163 -303
-305 -710 -744 -1658 -1970 -4250 -158 -336 -89 -191 -1319 -2785 -229 -481
-482 -1019 -564 -1195 -145 -311 -149 -322 -152 -395 -2 -59 1 -82 16 -110 34
-63 126 -89 192 -55 16 8 298 193 627 412 329 218 825 547 1103 731 530 351
1592 1055 2035 1347 143 94 402 265 575 380 1798 1188 3210 2111 3795 2481
346 219 477 298 837 505 179 104 220 267 98 390 -74 74 -174 88 -272 38 -23
-12 -96 -63 -161 -115 -361 -281 -1130 -812 -2842 -1961 -447 -300 -5490
-3664 -5514 -3678 -11 -6 -13 -3 -9 11 4 10 122 258 263 549 141 292 371 766
510 1055 242 503 983 2040 1145 2375 995 2059 1670 3428 1979 4015 97 183 154
304 162 338 32 157 -105 301 -261 272z"/>
<path d="M15634 24941 c-50 -29 -664 -665 -1604 -1661 -1004 -1064 -1685
-1754 -2035 -2062 -126 -110 -160 -164 -160 -253 0 -75 32 -136 93 -180 40
-28 50 -30 127 -30 79 0 86 2 133 35 27 19 93 87 147 150 240 281 1238 1361
1720 1861 439 455 1275 1307 1536 1564 191 188 301 304 314 330 84 177 -100
344 -271 246z"/>
<path d="M9627 24510 c-977 -61 -1797 -281 -2535 -679 -1083 -584 -1981 -1580
-2625 -2911 -447 -921 -722 -1903 -847 -3015 -105 -942 -119 -2395 -29 -3200
47 -425 134 -707 272 -880 164 -207 446 -315 820 -315 59 0 107 -1 108 -2 0
-2 4 -226 9 -498 9 -523 18 -647 56 -799 46 -182 144 -327 282 -417 31 -21 58
-38 60 -40 2 -1 -54 -60 -125 -131 -284 -283 -295 -363 -222 -1513 67 -1067
178 -1462 507 -1802 328 -339 829 -512 1617 -559 220 -13 772 -7 1015 11 1704
126 3586 553 5101 1158 741 296 1349 606 2154 1096 110 68 236 142 280 166 44
24 141 77 215 118 74 41 160 86 190 99 110 49 160 110 160 197 0 56 -14 93
-48 129 -40 42 -78 58 -137 58 -69 0 -102 -17 -350 -191 -463 -323 -731 -490
-1160 -725 -182 -100 -593 -307 -765 -385 -1331 -608 -2910 -1050 -4565 -1279
-1038 -144 -1897 -166 -2495 -65 -676 115 -1030 365 -1184 837 -83 253 -127
614 -156 1270 -13 303 -13 808 1 883 14 79 57 166 127 261 72 96 103 123 206
175 75 39 87 42 166 42 84 1 271 -15 425 -35 126 -17 200 13 245 102 40 77 12
178 -62 227 -47 31 -107 34 -253 14 -129 -17 -375 -15 -475 4 -209 39 -358
126 -420 243 -25 48 -49 153 -61 268 -19 183 -5 584 30 878 10 87 37 213 49
232 5 7 60 22 123 33 63 12 207 41 320 66 222 47 499 94 564 94 161 0 258 134
194 267 -25 52 -61 79 -125 94 -43 10 -57 8 -109 -10 -417 -150 -616 -202
-975 -256 -215 -33 -517 -44 -664 -26 -179 23 -314 73 -398 149 -241 216 -329
851 -315 2267 6 582 12 742 42 1145 86 1136 311 2093 710 3025 467 1091 1135
2015 1910 2641 830 670 1831 1047 2985 1125 227 15 830 6 1035 -16 228 -24
378 -52 505 -95 152 -51 177 -55 242 -36 61 17 122 69 144 122 21 50 18 140
-7 191 -55 114 -152 147 -529 178 -217 19 -1020 28 -1233 15z"/>
<path d="M18705 21056 c-27 -13 -106 -67 -174 -121 -334 -263 -1339 -982
-2291 -1640 -47 -32 -287 -198 -535 -370 -695 -481 -1630 -1123 -2780 -1910
-1410 -964 -1294 -879 -1303 -963 -9 -97 47 -152 156 -152 90 0 161 16 1357
310 270 66 621 152 780 191 160 39 389 96 510 125 2911 716 5001 1201 5548
1289 188 30 277 109 277 247 0 68 -26 123 -78 170 -77 70 -150 74 -324 19
-321 -102 -864 -252 -1668 -460 -85 -22 -234 -60 -331 -85 -503 -131 -2957
-746 -3389 -850 -58 -14 -352 -86 -655 -161 -939 -231 -1248 -306 -1257 -303
-6 2 224 163 509 358 616 421 1912 1304 2173 1481 102 69 325 220 495 336
1432 972 2510 1683 2964 1954 253 152 273 167 305 222 51 87 42 182 -22 257
-68 80 -170 102 -267 56z"/>
<path d="M20070 19956 c-94 -33 -361 -138 -1565 -613 -341 -135 -874 -344
-1185 -464 -311 -121 -589 -231 -617 -244 -104 -47 -151 -98 -173 -187 -24
-96 37 -206 136 -244 30 -11 63 -15 108 -12 59 3 87 15 328 135 434 216 672
317 1608 683 621 242 1080 418 1356 520 280 103 340 155 332 285 -5 76 -35
122 -101 154 -61 29 -117 26 -227 -13z"/>
<path d="M20837 16279 c-46 -11 -85 -30 -157 -79 -150 -101 -871 -482 -1940
-1025 -623 -316 -3719 -1864 -4640 -2319 -906 -447 -1082 -539 -1120 -583 -59
-67 -49 -158 23 -216 64 -52 73 -55 254 -82 488 -74 1114 -176 2495 -405 2202
-365 3510 -598 4323 -771 182 -39 382 -82 445 -95 125 -27 179 -25 240 6 177
91 152 342 -40 405 -25 8 -169 28 -320 45 -909 101 -2366 315 -4585 675 -187
30 -423 68 -525 85 -920 148 -1751 288 -1758 295 -3 2 8 11 24 20 51 27 2145
1071 2539 1265 209 103 628 310 930 460 2220 1099 3638 1775 3914 1865 70 23
154 102 170 160 18 65 13 117 -15 174 -32 64 -86 105 -155 120 -56 12 -50 12
-102 0z"/>
<path d="M20665 13604 c-402 -60 -1094 -163 -1425 -214 -402 -60 -629 -96
-1700 -264 -587 -92 -1062 -163 -1380 -206 -186 -25 -250 -42 -306 -81 -93
-64 -122 -206 -61 -298 69 -104 179 -126 359 -72 315 94 1333 289 2153 411
1163 174 1758 258 2220 315 160 20 308 41 330 46 75 20 121 54 150 114 33 67
29 123 -14 182 -56 77 -141 94 -326 67z"/>
</g>
</svg>
